<svg xmlns="http://www.w3.org/2000/svg" width="150" height="38" viewBox="0 0 150 38">
  <defs>
    <style>
      .cls-1 {
        fill: #4c7cf3;
        fill-rule: evenodd;
      }
    </style>
  </defs>
  <path id="neon" class="cls-1" d="M98.35,18.747a12.1,12.1,0,0,0-1.156-5.4,8.648,8.648,0,0,0-3.313-3.664,9.679,9.679,0,0,0-5.124-1.311,10.546,10.546,0,0,0-5.374,1.369,9.619,9.619,0,0,0-3.7,3.818,11.417,11.417,0,0,0-1.329,5.535,10.805,10.805,0,0,0,1.406,5.515,9.923,9.923,0,0,0,3.91,3.8,11.751,11.751,0,0,0,9.38.714,10.653,10.653,0,0,0,3.255-1.7,1.4,1.4,0,0,0,.616-1.157,1.687,1.687,0,0,0-.693-1.311,1.656,1.656,0,0,0-1.156-.386A2,2,0,0,0,93.8,25a7.18,7.18,0,0,1-2.061,1.041A7.814,7.814,0,0,1,84.386,24.8a6.794,6.794,0,0,1-2.446-4.358H96.578a1.757,1.757,0,0,0,1.271-.482,1.616,1.616,0,0,0,.5-1.215h0Zm-9.592-7.058a5.651,5.651,0,0,1,4.122,1.543,6.843,6.843,0,0,1,1.926,4.127H81.978a6.928,6.928,0,0,1,2.215-4.127,6.657,6.657,0,0,1,4.565-1.543h0Zm23.608-3.317a11.018,11.018,0,0,0-5.509,1.369,9.672,9.672,0,0,0-3.775,3.8,11.253,11.253,0,0,0-1.348,5.554,11.172,11.172,0,0,0,1.348,5.515,9.668,9.668,0,0,0,3.775,3.8,11.728,11.728,0,0,0,11,0,9.719,9.719,0,0,0,3.756-3.8,11.183,11.183,0,0,0,1.348-5.515,11.125,11.125,0,0,0-1.368-5.554,9.839,9.839,0,0,0-3.775-3.8,10.834,10.834,0,0,0-5.451-1.369h0Zm0,3.471a6.775,6.775,0,0,1,3.525.926,6.369,6.369,0,0,1,2.427,2.584,7.954,7.954,0,0,1,.867,3.741,7.838,7.838,0,0,1-.867,3.722,6.4,6.4,0,0,1-2.427,2.565,7.174,7.174,0,0,1-7.05,0,6.53,6.53,0,0,1-2.446-2.565,7.7,7.7,0,0,1-.886-3.722,7.811,7.811,0,0,1,.886-3.741,6.5,6.5,0,0,1,2.446-2.584,6.775,6.775,0,0,1,3.525-.926h0Zm27.351-3.51a9.7,9.7,0,0,0-3.621.675,8.571,8.571,0,0,0-2.928,1.909V10.493A2,2,0,0,0,129.8,9.066a1.9,1.9,0,0,0-.558,1.427V27.7a1.91,1.91,0,0,0,1.965,1.967,1.89,1.89,0,0,0,1.425-.559,1.948,1.948,0,0,0,.539-1.408V16.819a4.4,4.4,0,0,1,.751-2.507A5.236,5.236,0,0,1,136,12.538a6.571,6.571,0,0,1,2.947-.656,6.174,6.174,0,0,1,4.449,1.6,6.237,6.237,0,0,1,1.676,4.725V27.7a1.965,1.965,0,1,0,3.929,0V18.207a11.128,11.128,0,0,0-1.194-5.342,8.15,8.15,0,0,0-3.313-3.375,9.8,9.8,0,0,0-4.777-1.157h0Z"/>
  <path class="cls-1" d="M62.279,8.361a9.7,9.7,0,0,1,3.617.673,8.553,8.553,0,0,1,2.924,1.9V10.515a2,2,0,0,1,3.367-1.423,1.888,1.888,0,0,1,.558,1.423V27.673a2,2,0,0,1-3.386,1.4,1.94,1.94,0,0,1-.539-1.4V16.824a4.381,4.381,0,0,0-.75-2.5,5.224,5.224,0,0,0-2.078-1.77,6.572,6.572,0,0,0-2.944-.654A6.173,6.173,0,0,0,58.6,13.5a6.215,6.215,0,0,0-1.674,4.713v9.464a1.963,1.963,0,1,1-3.925,0V18.209A11.09,11.09,0,0,1,54.2,12.881a8.135,8.135,0,0,1,3.309-3.366,9.8,9.8,0,0,1,4.771-1.154h0Z"/>
  <path id="Shape_1_copy" data-name="Shape 1 copy" class="cls-1" d="M26.829,3.416a11.458,11.458,0,0,1,2.473,3.6,10.109,10.109,0,0,1,.851,4.055l0.358-.356a2.378,2.378,0,0,1,4.034,1.624A2.25,2.25,0,0,1,33.811,14L19.317,28.453a2.279,2.279,0,0,1-3.308.007,2.231,2.231,0,0,1-.726-1.663,2.313,2.313,0,0,1,.733-1.634l9.164-9.136a5.229,5.229,0,0,0,1.481-2.735,6.182,6.182,0,0,0-.253-3.232,7.759,7.759,0,0,0-1.923-3.019A7.333,7.333,0,0,0,19.4,4.66a7.453,7.453,0,0,0-5.389,2.565L6.017,15.194a2.279,2.279,0,0,1-3.308.007,2.262,2.262,0,0,1,.007-3.3l7.994-7.969a13.3,13.3,0,0,1,5.5-3.487,9.727,9.727,0,0,1,5.627-.06,11.623,11.623,0,0,1,4.988,3.028h0Z"/>
  <path id="Shape_1_copy_2" data-name="Shape 1 copy 2" class="cls-1" d="M10.246,34.584a11.46,11.46,0,0,1-2.473-3.6,10.11,10.11,0,0,1-.851-4.055l-0.357.356a2.309,2.309,0,0,1-1.655.747,2.289,2.289,0,0,1-1.652-.74,2.292,2.292,0,0,1-.726-1.631A2.25,2.25,0,0,1,3.264,24L17.758,9.547a2.279,2.279,0,0,1,3.308-.007,2.231,2.231,0,0,1,.726,1.663,2.313,2.313,0,0,1-.733,1.634l-9.164,9.136a5.229,5.229,0,0,0-1.481,2.735,6.182,6.182,0,0,0,.253,3.232,7.76,7.76,0,0,0,1.923,3.019,7.333,7.333,0,0,0,5.086,2.381,7.452,7.452,0,0,0,5.389-2.565l7.994-7.969a2.279,2.279,0,0,1,3.308-.007,2.262,2.262,0,0,1-.007,3.3l-7.994,7.969a13.3,13.3,0,0,1-5.5,3.487,9.727,9.727,0,0,1-5.626.06,11.623,11.623,0,0,1-4.988-3.028h0Z"/>
</svg>
